<?xml version="1.0" encoding="UTF-8"?>
<svg id="Capa_2" data-name="Capa 2" xmlns="http://www.w3.org/2000/svg" viewBox="0 0 1052.64 159.98">
  <defs>
    <style>
      .cls-1 {
        fill: #00a4e6;
      }

      .cls-1, .cls-2, .cls-3 {
        stroke-width: 0px;
      }

      .cls-2 {
        fill: none;
      }

      .cls-3 {
        fill: #020909;
      }
    </style>
  </defs>
  <g id="Capa_1-2" data-name="Capa 1">
    <g>
      <g>
        <path class="cls-3" d="m435.69,65.04l11.04,22.85h-3.98l-2.36-5.03h-9.45l-2.35,5.03h-3.95l11.04-22.85Zm-3.15,14.45h6.27l-3.12-6.68-3.15,6.68Z"/>
        <path class="cls-3" d="m448.77,92.15l1.85-3.05c1.34.99,2.99,1.62,4.99,1.62,2.39,0,4.71-.76,4.71-3.34,0-.45-.09-1.11-.35-1.62-1.08.89-2.61,1.49-4.36,1.49-4.71,0-7.92-3.28-7.92-7.76s3.21-7.76,7.92-7.76c1.69,0,3.12.54,4.23,1.43v-1.18h3.5v12.7c.45,1.11.64,2.23.64,3.15,0,4.55-4.26,6.24-8.37,6.24-2.19,0-4.77-.57-6.84-1.91Zm11.07-10.37v-4.58c-.86-1.31-2.45-2.13-4.2-2.13-2.45,0-4.36,1.81-4.36,4.42s1.91,4.42,4.36,4.42c1.75,0,3.34-.83,4.2-2.13Z"/>
        <path class="cls-3" d="m466.87,79.93c0-4.65,3.5-8.21,8.15-8.21s7.38,3.12,7.61,8.21v.95h-12.12c.35,2.26,2.2,3.79,4.58,3.79,1.91,0,3.31-.89,4.14-1.81l2.35,2.51c-1.37,1.59-3.69,2.77-6.49,2.77-4.71,0-8.21-3.56-8.21-8.21Zm3.72-1.75h8.18c-.41-2.16-1.91-3.24-4.01-3.24-1.88,0-3.59,1.24-4.17,3.24Z"/>
        <path class="cls-3" d="m486.09,71.98h3.5v1.49c1.11-1.21,2.8-1.75,4.45-1.75,3.94,0,6.46,2.74,6.46,6.84v9.32h-3.5v-9.26c0-1.72-1.27-3.56-3.63-3.56-1.78,0-3.15.92-3.79,2.8v10.02h-3.5v-15.91Z"/>
        <path class="cls-3" d="m502.32,71.98h3.09v-3.05l3.5-1.72v4.77h4.84l-.76,3.12h-4.07v7.22c0,1.62.45,2.35,2.26,2.35h2.19v3.21h-3.09c-3.05,0-4.87-1.81-4.87-4.84v-7.95h-2.32l-.76-3.12Z"/>
        <path class="cls-3" d="m515.58,79.93c0-4.65,3.5-8.21,8.15-8.21s7.38,3.12,7.6,8.21v.95h-12.12c.35,2.26,2.19,3.79,4.58,3.79,1.91,0,3.31-.89,4.14-1.81l2.35,2.51c-1.37,1.59-3.69,2.77-6.49,2.77-4.71,0-8.21-3.56-8.21-8.21Zm3.72-1.75h8.18c-.41-2.16-1.91-3.24-4.01-3.24-1.88,0-3.6,1.24-4.17,3.24Z"/>
        <path class="cls-3" d="m553.61,86.74c-1.11.89-2.58,1.4-4.27,1.4-4.71,0-8.18-3.56-8.18-8.21s3.47-8.21,8.18-8.21c1.69,0,3.15.54,4.27,1.43v-7.86h3.5v22.59h-3.5v-1.15Zm0-4.11v-5.41c-.86-1.31-2.48-2.16-4.23-2.16-2.71,0-4.61,2.1-4.61,4.87s1.91,4.87,4.61,4.87c1.75,0,3.37-.86,4.23-2.16Z"/>
        <path class="cls-3" d="m560.61,79.93c0-4.65,3.5-8.21,8.15-8.21s7.38,3.12,7.61,8.21v.95h-12.12c.35,2.26,2.2,3.79,4.58,3.79,1.91,0,3.31-.89,4.14-1.81l2.35,2.51c-1.37,1.59-3.69,2.77-6.49,2.77-4.71,0-8.21-3.56-8.21-8.21Zm3.72-1.75h8.18c-.41-2.16-1.91-3.24-4.01-3.24-1.88,0-3.59,1.24-4.17,3.24Z"/>
      </g>
      <path class="cls-1" d="m91.45,36c2.27-1.41,3.74-4.03,3.74-6.95,0-6.42-4.01-9.95-11.3-9.95h-8.78c-1.38,0-2.52,1.13-2.52,2.52v31.28c0,1.38,1.13,2.52,2.52,2.52h10.34c7,0,11.35-4.09,11.35-10.68,0-4.12-1.92-7.22-5.35-8.73Zm-13.57-1.71v-10.56h6.27c4.19,0,6.32,1.78,6.32,5.28s-2.3,5.28-6.32,5.28h-6.27Zm14.11,10.54c0,3.9-2.19,5.97-6.33,5.97h-7.78v-11.89h7.78c4.02,0,6.33,2.16,6.33,5.92Zm24.43-24.91c-.42-1.02-1.34-1.66-2.4-1.66-.76,0-1.78.29-2.36,1.67l-12.69,32.08c-.16.33-.23.8-.23,1.11,0,1.36,1.15,2.52,2.52,2.52,1.1,0,2-.65,2.41-1.72l3.62-9.06h13.51l3.56,9.1c.4,1.05,1.3,1.68,2.41,1.68,1.44,0,2.57-1.1,2.57-2.52,0-.22-.06-.68-.21-1.06l-12.71-32.14Zm2.7,20.31h-10.17l5.06-13.12,5.1,13.12Zm40.64-19.27v32.36c0,1.28-1.04,2.5-2.31,2.59-.94.07-1.72-.28-2.3-1.02l-17.18-25.91v24.27c0,1.14-.77,2.21-1.89,2.41-1.46.26-2.73-.86-2.73-2.28V20.79c0-.62.3-1.23.85-1.54.03-.01.05-.03.08-.04.3-.25.66-.43,1.07-.5,1.12-.19,1.99.42,2.4.98l16.74,25.16v-23.95c0-.97.54-1.89,1.43-2.3,1.95-.9,3.86.51,3.86,2.36Zm9.21,16.16c0,9.72,3.77,14.25,11.85,14.25,3.57,0,6.73-1.48,8.45-3.95.44-.63,1.17-1,1.97-1,1.35,0,2.41,1.06,2.41,2.41,0,.53-.13.94-.44,1.4-2.45,3.55-7.31,5.85-12.39,5.85-11.12,0-16.99-6.56-16.99-18.97s6.04-19.03,16.99-19.03c5.08,0,9.68,2.18,12.32,5.83.34.47.51.98.51,1.53,0,1.35-1.06,2.41-2.41,2.41-.78,0-1.43-.32-1.94-.96-1.81-2.5-5.13-4.09-8.48-4.09-7.87,0-11.85,4.81-11.85,14.3Zm44.72-19.03c-10.96,0-16.99,6.76-16.99,19.03s6.04,18.97,16.99,18.97,16.99-6.74,16.99-18.97-6.04-19.03-16.99-19.03Zm11.86,19.03c0,9.46-3.99,14.25-11.86,14.25s-11.86-4.79-11.86-14.25,3.99-14.3,11.86-14.3,11.86,4.81,11.86,14.3Zm127.51,28.41c18.78,0,33.5,14.1,33.5,32.1v42.18h-.05c-.09.67-.65,1.2-1.34,1.2h-15.85c-.7,0-1.25-.53-1.34-1.2h-.03v-.16s0-.01,0-.02v-2.38s0-39.63,0-39.63h-.05c0-6.49-5.33-13.38-15.2-13.48-9.87.1-15.2,6.99-15.2,13.48h-.05v42.01s0,.01,0,.02v.16h-.03c-.09.67-.64,1.2-1.34,1.2h-15.85c-.7,0-1.25-.53-1.34-1.2h-.05v-42.18c0-18,14.71-32.1,33.49-32.1h.15c.07,0,.14,0,.21,0,.07,0,.14,0,.21,0h.15m-163.74,73.02h-.05c-.09.67-.64,1.2-1.34,1.2h-15.85c-.7,0-1.25-.53-1.34-1.2h-.03v-.16s0,0,0-.02v-2.38s0-38.36,0-38.36c0-8.86-7.49-13.49-14.89-13.49h-.15c-10,0-15.4,6.95-15.4,13.49v11.27c0,18-14.94,32.1-34.01,32.1h-.15c-18.78,0-33.5-14.1-33.5-32.1v-40.91h0v-.19c0-.76.61-1.38,1.38-1.38h15.82c.76,0,1.38.61,1.38,1.38v.19h.03v40.91c0,8.86,7.49,13.49,14.89,13.49h.15c10,0,15.4-6.96,15.4-13.49v-11.27c0-18,14.94-32.1,34.01-32.1h.15c18.78,0,33.5,14.1,33.5,32.1v40.91Zm82.09-72.95c-19.92,0-36.12,16.9-36.12,37.67s16.2,37.67,36.12,37.67,36.12-16.9,36.12-37.67-16.2-37.67-36.12-37.67m0,56.36c-9.7,0-17.58-8.38-17.58-18.69s7.89-18.69,17.58-18.69,17.58,8.38,17.58,18.69-7.89,18.69-17.58,18.69m-49.48-56.09c.8,0,1.45.65,1.45,1.45v72.24c0,.8-.65,1.45-1.45,1.45h-16.63c-.8,0-1.45-.65-1.45-1.45v-72.24c0-.8.65-1.45,1.45-1.45h16.63"/>
      <path class="cls-2" d="m72.59,141.01h313.95V18.09H72.59v122.92Z"/>
      <g>
        <path class="cls-2" d="m36.12,42.06C16.2,42.06,0,58.95,0,79.72s16.2,37.67,36.12,37.67,36.12-16.9,36.12-37.67-16.2-37.67-36.12-37.67Zm0,56.36c-9.7,0-17.58-8.38-17.58-18.69s7.89-18.69,17.58-18.69,17.58,8.38,17.58,18.69-7.89,18.69-17.58,18.69Z"/>
        <path class="cls-2" d="m1016.52,42.06c-19.92,0-36.12,16.9-36.12,37.67s16.2,37.67,36.12,37.67,36.12-16.9,36.12-37.67-16.2-37.67-36.12-37.67Zm0,56.36c-9.7,0-17.58-8.38-17.58-18.69s7.89-18.69,17.58-18.69,17.58,8.38,17.58,18.69-7.89,18.69-17.58,18.69Z"/>
        <path class="cls-2" d="m79.1,0c-19.92,0-36.12,16.9-36.12,37.67,0,.01,0,.02,0,.03h18.54s0-.02,0-.03c0-10.31,7.89-18.69,17.58-18.69s17.58,8.38,17.58,18.69c0,.01,0,.02,0,.03h18.54s0-.02,0-.03C115.22,16.9,99.02,0,79.1,0Z"/>
        <path class="cls-2" d="m328.38,159.98c19.92,0,36.12-16.9,36.12-37.67,0-.01,0-.02,0-.03h-18.54s0,.02,0,.03c0,10.31-7.89,18.69-17.58,18.69s-17.58-8.38-17.58-18.69c0-.01,0-.02,0-.03h-18.54s0,.02,0,.03c0,20.77,16.2,37.67,36.12,37.67Z"/>
        <path class="cls-2" d="m696.78,159.98c19.92,0,36.12-16.9,36.12-37.67,0-.01,0-.02,0-.03h-18.54s0,.02,0,.03c0,10.31-7.89,18.69-17.58,18.69s-17.58-8.38-17.58-18.69c0-.01,0-.02,0-.03h-18.54s0,.02,0,.03c0,20.77,16.2,37.67,36.12,37.67Z"/>
        <path class="cls-2" d="m575.94,84.75c0,19.92,16.9,36.12,37.67,36.12.01,0,.02,0,.03,0v-18.54s-.02,0-.03,0c-10.31,0-18.69-7.89-18.69-17.58s8.38-17.58,18.69-17.58c.01,0,.02,0,.03,0v-18.54s-.02,0-.03,0c-20.77,0-37.67,16.2-37.67,36.12Z"/>
        <path class="cls-2" d="m424.36,87.71c0-19.92-16.9-36.12-37.67-36.12-.01,0-.02,0-.03,0v18.54s.02,0,.03,0c10.31,0,18.69,7.89,18.69,17.58s-8.38,17.58-18.69,17.58c-.01,0-.02,0-.03,0v18.54s.02,0,.03,0c20.77,0,37.67-16.2,37.67-36.12Z"/>
      </g>
      <g>
        <path class="cls-2" d="m613.96,141.09h366.56V55.4h-366.56v85.68Z"/>
        <g>
          <g>
            <path class="cls-3" d="m657.57,130.9c7.83,13.52,20.63,13.52,28.46,0l4.38-7.56-39.18-67.85h-37.19l43.53,75.42Z"/>
            <path class="cls-3" d="m740.08,101.92c-2.86,4.93-9.59,4.92-12.44,0l-26.84-46.42h-37.18l43.58,75.44c7.83,13.52,20.6,13.52,28.43,0l29.17-50.53-14.35-24.92h-37.16l26.8,46.43Z"/>
          </g>
          <g>
            <path class="cls-3" d="m789.99,95.38h7.63l.06-.24c4.7-17.45,6.63-24.9,7.42-29.52.76,4.6,2.59,12.16,7.09,29.52l.06.24h7.79l10.84-39.89h-7.09l-.06.24c-4.71,18.11-6.51,25.45-7.33,30.12-.95-5.02-2.99-13.31-7.4-30.12l-.06-.24h-7.41l-.06.24c-4.59,17.93-6.51,25.61-7.33,30.6-.9-4.86-2.92-12.91-7.5-30.6l-.06-.24h-7.37l10.72,39.65.06.24Z"/>
            <path class="cls-3" d="m842.93,95.93c5.76,0,11.22-3.14,13.4-7.82l-5.26-2.67h-.11s-.1.19-.1.19c-.64,1.32-2.97,4.41-7.87,4.41-4.45,0-7.83-2.83-8.35-6.93h22.66v-.31c.15-5.59-1.37-10.18-4.38-13.26-2.61-2.68-6.21-4.09-10.41-4.09s-7.92,1.56-10.64,4.4c-2.69,2.81-4.17,6.68-4.17,10.91,0,8.94,6.27,15.19,15.24,15.19Zm-.44-24.71c4.2,0,7.39,2.68,7.71,6.43h-15.58c.48-3.75,3.73-6.43,7.86-6.43Z"/>
            <path class="cls-3" d="m871.62,95.93c7.42,0,12.03-3.45,12.03-9,0-6.58-5.98-8.14-10.79-9.38-3.32-.86-6.19-1.61-6.19-3.72,0-1.7,1.79-2.88,4.36-2.88,2.81,0,4.75,1.48,5.07,3.87l.2,1.21.13-.02,5.9-1.09c0-5.53-4.89-9.42-11.24-9.42s-11.1,3.61-11.1,8.78c0,6.25,5.81,7.8,10.47,9.05,3.38.9,6.29,1.68,6.29,3.89,0,1.92-1.88,3.11-4.9,3.11-3.63,0-6.08-1.69-6.38-4.41l-.05-.45-6.25,1.19c0,6.05,6.78,9.29,12.46,9.29Z"/>
            <path class="cls-3" d="m888.93,89.95c0,3.3,2.09,5.98,5.55,5.98,4.29,0,5.55-.55,5.55-.55v-5.56s-1.29.21-2.85.21c-1.01,0-1.72-.61-1.72-1.53v-16.83h4.53l-.06-5.62h-4.47v-8.35l-6.53,1.63v6.71h-3.41l-.02,5.62h3.43v18.28Z"/>
            <path class="cls-3" d="m940.09,69.75v-3.71h-5.75v29.33h6.91l-.06-17.94c.09-1.8.69-3.19,1.8-4.11,1.45-1.21,3.71-1.62,6.71-1.23l.36.05.06-6.12-.28-.04c-4.14-.56-7.88.7-9.75,3.76Z"/>
            <path class="cls-3" d="m968.86,65.43c-4.15,0-8.04,1.65-9.97,4.8v-4.19h-5.98v29.33h6.96v-15.75c0-5.06,2.65-8.08,7.08-8.08,3.03,0,6.65,1.33,6.65,7.64v16.19h6.96v-17.13c0-9.45-6.04-12.82-11.7-12.82Z"/>
            <path class="cls-3" d="m807.39,124c0,6.78-3.21,10.51-9.04,10.51s-8.99-3.73-8.99-10.51v-23.37h-7.01v23.21c0,10.79,5.98,17.24,16,17.24s16-6.44,16-17.24v-23.21h-6.96v23.37Z"/>
            <path class="cls-3" d="m834.44,110.58c-4.15,0-8.04,1.65-9.97,4.8v-4.19h-5.98v29.33h6.96v-15.74c0-5.06,2.65-8.08,7.08-8.08,3.03,0,6.65,1.33,6.65,7.64v16.19h6.96v-17.13c0-9.45-6.04-12.82-11.7-12.82Z"/>
            <rect class="cls-3" x="850.45" y="111.19" width="6.9" height="29.33"/>
            <path class="cls-3" d="m853.93,100.38c-2.26,0-4.02,1.74-4.02,3.96s1.81,3.9,4.02,3.9,3.97-1.75,3.97-3.9-1.78-3.96-3.97-3.96Z"/>
            <path class="cls-3" d="m876.03,110.58c-4.3,0-8.22,1.54-11.06,4.34-2.84,2.8-4.4,6.67-4.4,10.91,0,8.83,6.5,15.25,15.46,15.25s15.51-6.41,15.51-15.25c0-4.24-1.56-8.11-4.4-10.91-2.84-2.8-6.79-4.34-11.11-4.34Zm0,24.16c-4.97,0-8.71-3.83-8.71-8.91s3.75-8.91,8.71-8.91,8.82,3.83,8.82,8.91-3.79,8.91-8.82,8.91Z"/>
            <path class="cls-3" d="m910.71,110.58c-4.15,0-8.04,1.65-9.97,4.8v-4.19h-5.98v29.33h6.96v-15.74c0-5.06,2.65-8.08,7.08-8.08,3.03,0,6.65,1.33,6.65,7.64v16.19h6.96v-17.13c0-9.45-6.04-12.82-11.7-12.82Z"/>
            <path class="cls-3" d="m916.57,65.43c-4.15,0-7.92,1.56-10.64,4.4-2.69,2.81-4.17,6.68-4.17,10.91,0,8.94,6.27,15.19,15.24,15.19,5.76,0,11.22-3.14,13.4-7.82l-5.26-2.67h-.11s-.1.19-.1.19c-.64,1.32-2.97,4.41-7.87,4.41-4.45,0-7.83-2.83-8.35-6.93h22.66v-.31c.15-5.59-1.37-10.18-4.38-13.26-2.61-2.68-6.21-4.09-10.41-4.09Zm-7.86,12.22c.48-3.75,3.73-6.43,7.86-6.43s7.39,2.68,7.71,6.43h-15.58Z"/>
          </g>
        </g>
      </g>
    </g>
    <g>
      <path class="cls-3" d="m32.36,146.22l-5.02,1.8v-1.13s3.67-1.28,3.67-1.28l-3.67-1.2v-1.06s5.02,1.81,5.02,1.81v1.05Zm0-5.27h-5.02v-1.05h5.02v1.05Zm-1.88-6.24h-.83v-2.18h1.96c.23.23.44.53.6.92.15.44.22.82.22,1.19,0,.52-.15.98-.37,1.42-.22.38-.53.68-.9.84-.45.22-.83.29-1.36.29s-.96-.07-1.34-.29c-.46-.23-.75-.54-.98-.98-.14-.3-.23-.68-.23-1.21,0-.6.14-1.04.37-1.43.3-.38.61-.6,1.13-.68l.15.98c-.22.08-.45.22-.6.45-.16.15-.16.38-.16.68,0,.45.08.83.38,1.06.3.29.68.38,1.27.38.53,0,.98-.09,1.28-.38.29-.23.44-.61.44-1.06,0-.15,0-.36-.07-.6-.16-.22-.23-.38-.3-.52h-.68s0,1.13,0,1.13Zm1.88-5.04h-5.02v-.98h5.02v.98Zm0-3.91h-4.96v-.97h4.06s0-2.56,0-2.56h.9v3.53Zm0-10.31v1.13s-1.2.46-1.2.46v1.95s1.2.45,1.2.45v1.04s-5.02-1.95-5.02-1.95v-1.04s5.02-2.06,5.02-2.06Zm-2.03,1.89l-1.8.67,1.8.68v-1.35Zm-2.99-4.06v-1.88c0-.37.06-.68.06-.9.16-.3.31-.52.53-.75.22-.22.46-.37.76-.45.37-.15.75-.22,1.2-.22.37,0,.75.07,1.05.15.37.15.68.31.91.52.14.23.28.46.38.75.07.23.15.54.15.9v1.88h-5.02Zm.81-.98h3.31s0-.75,0-.75v-.68c-.09-.15-.16-.3-.23-.38-.07-.07-.22-.22-.45-.22-.21-.07-.53-.14-.98-.14-.37,0-.66.07-.83.14-.21,0-.37.15-.51.22-.07.16-.15.29-.23.54,0,.07-.08.37-.08.83v.44Zm1.74-5.78c-.52,0-.98-.08-1.28-.24-.29-.15-.52-.31-.67-.44-.22-.23-.37-.46-.45-.69-.14-.29-.23-.67-.23-1.04,0-.76.23-1.36.67-1.81.46-.37,1.13-.59,1.87-.59.84,0,1.5.14,1.95.59.46.45.68,1.05.68,1.81s-.22,1.27-.68,1.73c-.45.44-1.12.68-1.87.68h0Zm-.09-1.06c.6,0,1.06-.16,1.28-.37.29-.31.44-.6.44-.98,0-.46-.16-.76-.44-.99-.22-.29-.68-.44-1.28-.44-.51,0-.96.15-1.27.38-.3.3-.38.6-.38,1.06,0,.37.08.75.38.98.3.21.75.37,1.27.37h0Z"/>
      <rect class="cls-3" x="22.91" y="99.37" width="1.43" height="50.91"/>
      <rect class="cls-3" x="34.76" y="99.37" width="1.43" height="50.91"/>
      <path class="cls-3" d="m27.26,96.57l-.08-.75c.22,0,.38-.16.53-.31.15-.07.15-.3.15-.52s0-.45-.15-.52c-.08-.17-.23-.24-.37-.24-.08,0-.16,0-.23.07-.08.09-.08.17-.15.31,0,.08-.06.3-.15.6-.08.38-.22.69-.38.9-.22.23-.44.3-.74.3-.22,0-.38,0-.6-.15-.16-.07-.3-.3-.39-.45-.06-.23-.14-.46-.14-.75,0-.53.14-.83.37-1.13.16-.22.44-.38.82-.38v.74c-.15.09-.29.17-.38.24-.08.15-.14.3-.14.53s.07.38.14.52c.08.07.15.07.23.07s.15,0,.23-.07c.07-.08.15-.38.22-.75.16-.37.23-.61.31-.83.06-.15.22-.3.37-.38.16-.14.38-.14.61-.14.22,0,.44.07.66.14.15.16.31.31.39.53.07.23.14.53.14.83,0,.52-.07.83-.3,1.13-.24.23-.61.37-.98.45h0Zm-2.62-3.76v-.75h2.09c.3,0,.53,0,.61,0,.14-.07.29-.15.37-.29.15-.09.15-.31.15-.47,0-.21,0-.38-.15-.53-.08-.07-.15-.15-.31-.23h-.67s-2.09,0-2.09,0v-.75h2.01c.46,0,.75,0,.98,0,.16.08.37.15.45.3.15.08.23.23.31.45.14.16.14.37.14.67,0,.38-.07.68-.14.83-.08.23-.16.38-.31.45-.15.16-.3.23-.45.23-.23.07-.52.07-.98.07h-2.01Zm3.83-3.84h-3.83v-1.27c0-.45.06-.76.06-.91.08-.22.23-.38.39-.53.21-.15.44-.23.75-.23.22,0,.44,0,.59.16.16.07.3.15.38.3.08.14.15.22.15.38.08.22.08.44.08.83v.52s1.43,0,1.43,0v.75Zm-3.16-.75h1.06s0-.45,0-.45v-.6c-.08-.15-.15-.22-.23-.22-.08-.07-.15-.15-.3-.15s-.23.08-.3.15c-.15.08-.15.22-.23.31v.59s0,.38,0,.38Zm3.16-2.86h-3.83v-2.78h.67v2.04s.83,0,.83,0v-1.88h.67v1.88s1.05,0,1.05,0v-2.11h.6v2.85Zm0-3.54h-3.83v-1.65c0-.38.06-.68.15-.83.08-.22.15-.38.37-.46.15-.15.38-.22.6-.22s.52.15.67.3c.22.16.3.38.38.76.08-.15.15-.3.3-.46.15-.07.3-.22.6-.38l.75-.53v.98s-.83.53-.83.53c-.29.22-.45.3-.52.37-.08.08-.15.15-.15.31-.06.07-.06.14-.06.37v.16s1.58,0,1.58,0v.74Zm-2.18-.74v-.6c0-.38,0-.6-.07-.68,0-.07-.08-.15-.16-.22-.07-.08-.14-.08-.3-.08-.07,0-.22,0-.29.08-.08.07-.16.22-.16.3v.6s0,.6,0,.6h.98Zm2.18-3.08h-3.83v-.76h3.83v.76Zm0-1.51h-3.83v-.75s2.55-1.57,2.55-1.57h-2.55v-.67h3.83v.75s-2.48,1.5-2.48,1.5h2.48v.75Zm0-4.73h-3.16s0,1.12,0,1.12h-.67v-3h.67v1.13s3.16,0,3.16,0v.75Zm0-2.41h-3.83v-2.78h.67v2.03s.83,0,.83,0v-1.88h.67v1.88s1.05,0,1.05,0v-2.11h.6v2.86Zm0-3.53h-3.83v-.76s2.55-1.59,2.55-1.59h-2.55v-.67h3.83v.76s-2.48,1.5-2.48,1.5h2.48v.76Zm-3.83-3.83v-1.43c0-.31.06-.53.06-.75.08-.24.23-.38.39-.52.15-.16.37-.31.6-.38.23-.07.53-.15.9-.15.3,0,.6.07.82.15.31.07.53.22.68.38.15.14.23.29.31.52.07.23.07.45.07.67v1.51h-3.83Zm.67-.82h2.56s0-.54,0-.54c0-.22-.07-.38-.07-.45,0-.15-.08-.23-.16-.38-.07-.08-.23-.15-.37-.15-.15-.08-.37-.08-.67-.08s-.53,0-.68.08c-.16,0-.3.08-.38.22-.07.08-.15.23-.23.31v.67s0,.31,0,.31Zm3.16-3.1h-3.83v-2.78h.67v2.03s.83,0,.83,0v-1.87h.67v1.87s1.05,0,1.05,0v-2.1h.6v2.85Zm0-3.53h-3.83v-.74s2.55-1.58,2.55-1.58h-2.55v-.68h3.83v.76s-2.48,1.51-2.48,1.51h2.48v.74Zm-1.43-6.32l.31-.74c.37.14.66.3.9.6.23.22.3.59.3.98,0,.53-.14.98-.54,1.28-.29.3-.82.53-1.42.53s-1.12-.24-1.5-.53c-.3-.29-.53-.74-.53-1.28,0-.45.14-.91.45-1.13.14-.22.37-.31.67-.45l.23.82c-.23,0-.38.08-.45.23-.16.14-.23.37-.23.53,0,.3.14.53.3.67.22.23.52.31.98.31.52,0,.83-.08,1.05-.31.23-.14.3-.37.3-.67,0-.15-.07-.38-.15-.53-.15-.15-.37-.23-.68-.31h0Zm1.43-1.35h-3.83v-.75h3.83v.75Zm0-4.97v.83s-.83.3-.83.3v1.58s.83.3.83.3v.83s-3.83-1.51-3.83-1.51v-.82s3.83-1.51,3.83-1.51Zm-1.51,1.43l-1.42.53,1.42.53v-1.06Zm1.51-3.16h-3.83v-2.62h.67v1.88s.91,0,.91,0v-1.58h.68v1.58s1.58,0,1.58,0v.75Zm0-3.23h-3.83v-.75h3.83v.75Zm0-1.5h-3.83v-.75s2.55-1.59,2.55-1.59h-2.55v-.67h3.83v.76s-2.48,1.58-2.48,1.58h2.48v.68Zm0-7.3v.83s-.83.36-.83.36v1.51s.83.3.83.3v.83s-3.83-1.5-3.83-1.5v-.83s3.83-1.5,3.83-1.5Zm-1.51,1.43l-1.42.52,1.42.53v-1.05Zm1.51-1.81h-3.83v-.77s2.55-1.56,2.55-1.56h-2.55v-.76h3.83v.76s-2.48,1.56-2.48,1.56h2.48v.77Zm-1.43-6.31l.31-.76c.37.09.66.31.9.53.23.31.3.68.3,1.06,0,.52-.14.9-.54,1.28-.29.3-.82.44-1.42.44s-1.12-.15-1.5-.44c-.3-.38-.53-.83-.53-1.36,0-.45.14-.82.45-1.13.14-.14.37-.29.67-.38l.23.76c-.23.08-.38.14-.45.3-.16.15-.23.3-.23.53,0,.29.14.52.3.67.22.16.52.31.98.31.52,0,.83-.15,1.05-.31.23-.15.3-.38.3-.67,0-.23-.07-.38-.15-.53-.15-.16-.37-.22-.68-.3h0Zm1.43-1.43h-3.83v-.75h3.83v.75Zm0-1.5h-3.83v-2.79h.67v2.03s.83,0,.83,0v-1.87h.67v1.87s1.05,0,1.05,0v-2.1h.6v2.86Zm0-3.54h-3.83v-1.64c0-.38.06-.69.15-.9.08-.16.15-.3.37-.38.15-.16.38-.23.6-.23s.52.07.67.31c.22.14.3.37.38.75.08-.15.15-.3.3-.45.15-.08.3-.24.6-.46l.75-.46v.91s-.83.59-.83.59c-.29.23-.45.32-.52.38-.08.08-.15.15-.15.22-.06.08-.06.22-.06.45v.15s1.58,0,1.58,0v.75Zm-2.18-.75v-.6c0-.38,0-.61-.07-.67,0-.08-.08-.15-.16-.23-.07-.08-.14-.08-.3-.08-.07,0-.22,0-.29.08-.08.08-.16.15-.16.29v.61s0,.6,0,.6h.98Zm2.18-6.53v.82s-.83.3-.83.3v1.58s.83.31.83.31v.82s-3.83-1.5-3.83-1.5v-.83s3.83-1.49,3.83-1.49Zm-1.51,1.43l-1.42.52,1.42.52v-1.04Zm3.69,61.66v-1.35c0-.37,0-.6.08-.76.07-.22.15-.37.3-.6.22-.14.36-.23.68-.31.22-.15.52-.15.89-.15.3,0,.53,0,.75.08.31.14.53.3.67.45.15.14.22.29.3.51.08.16.16.39.16.68v1.43h-3.82Zm.59-.76h2.55s0-.52,0-.52c0-.22,0-.37-.07-.52,0-.07-.08-.22-.16-.31-.07-.07-.14-.15-.37-.15-.15-.07-.37-.14-.67-.14s-.53.08-.67.14c-.15,0-.31.08-.38.15-.09.16-.16.23-.16.39-.07.15-.07.3-.07.67v.29Zm3.23-3.08h-3.82v-2.86h.59v2.11s.89,0,.89,0v-1.96h.61v1.96s1.05,0,1.05,0v-2.19h.68v2.93Zm-1.43-7.44l.22-.75c.46.07.75.3.91.53.22.29.3.59.3,1.05s-.16.9-.53,1.21c-.29.37-.74.51-1.35.51-.67,0-1.12-.15-1.49-.51-.37-.32-.51-.75-.51-1.29,0-.45.14-.83.36-1.13.15-.15.44-.3.76-.37l.15.75c-.23,0-.38.15-.47.3-.14.15-.14.3-.14.52s.07.47.29.68c.16.16.53.22.99.22s.82-.06,1.05-.22c.16-.21.3-.45.3-.68s-.08-.37-.22-.52c-.15-.15-.31-.3-.6-.3h0Zm-.52-1.28c-.39,0-.67-.08-.99-.16-.16-.15-.37-.22-.52-.37-.15-.15-.22-.3-.3-.52-.14-.23-.14-.53-.14-.83,0-.53.14-.98.51-1.35.29-.31.82-.46,1.43-.46s1.13.15,1.42.46c.37.36.53.82.53,1.35,0,.61-.16,1.05-.53,1.35-.29.37-.82.53-1.42.53h0Zm0-.83c.44,0,.74-.08.97-.3.23-.15.38-.45.38-.75s-.15-.53-.38-.75c-.23-.23-.53-.3-.97-.3s-.76.07-.99.3c-.23.22-.29.44-.29.75s.07.61.29.75c.23.22.53.3.99.3h0Zm1.95-3.53h-3.82v-.76h3.15s0-1.96,0-1.96h.68v2.72Zm-1.95-3.09c-.39,0-.67-.07-.99-.15-.16-.07-.37-.23-.52-.37-.15-.15-.22-.31-.3-.47-.14-.29-.14-.51-.14-.82,0-.6.14-1.05.51-1.36.29-.37.82-.52,1.43-.52s1.13.15,1.42.52c.37.31.53.76.53,1.28,0,.61-.16,1.05-.53,1.43-.29.3-.82.44-1.42.44h0Zm0-.74c.44,0,.74-.16.97-.31.23-.22.38-.44.38-.75,0-.37-.15-.6-.38-.83-.23-.15-.53-.22-.97-.22s-.76.08-.99.22c-.23.23-.29.46-.29.83,0,.31.07.53.29.75.23.15.53.31.99.31h0Zm1.95-3.54h-3.82v-1.13s2.55-.75,2.55-.75l-2.55-.67v-1.13h3.82v.68h-3.09s3.09.84,3.09.84v.67s-3.09.75-3.09.75h3.09v.76Zm-3.82-4.44v-1.57c0-.31,0-.53,0-.69.08-.14.08-.22.15-.37.08-.15.22-.23.37-.29.07-.08.21-.08.37-.08.23,0,.38,0,.53.14.16.07.31.23.37.38,0-.22.15-.44.3-.52.15-.15.38-.24.6-.24.15,0,.31.09.53.15.14.09.23.16.37.3.08.15.15.3.15.52,0,.16,0,.46.08.91v1.35h-3.82Zm.59-.82h.89s0-.45,0-.45v-.61c0-.15-.07-.23-.14-.29-.07-.09-.14-.09-.29-.09-.16,0-.23,0-.32.09-.07.07-.07.15-.14.29v.68s0,.38,0,.38Zm1.5,0h1.05s0-.68,0-.68v-.53c-.07-.15-.07-.23-.15-.3-.08-.07-.23-.07-.39-.07-.07,0-.22,0-.3.07-.07.06-.07.15-.14.22,0,.08-.08.3-.08.69v.6Zm1.73-3.01h-3.82v-.83h3.82v.83Zm0-4.96v.83s-.9.3-.9.3v1.56s.9.31.9.31v.83s-3.82-1.5-3.82-1.5v-.82s3.82-1.5,3.82-1.5Zm-1.58,1.43l-1.36.52,1.36.52v-1.05Z"/>
    </g>
  </g>
</svg>