<?xml version="1.0" encoding="UTF-8"?>
<svg id="Capa_2" data-name="Capa 2" xmlns="http://www.w3.org/2000/svg" viewBox="0 0 923.99 361.76">
  <defs>
    <style>
      .cls-1 {
        fill: #fae100;
        stroke-width: 0px;
      }
    </style>
  </defs>
  <g id="Capa_1-2" data-name="Capa 1">
    <path class="cls-1" d="M55.51,52.69c6.69-4.14,11.01-11.87,11.01-20.44,0-18.89-11.81-29.3-33.25-29.3H7.42C3.35,2.96.02,6.29.02,10.36v92.07c0,4.07,3.33,7.4,7.4,7.4h30.42c20.61,0,33.41-12.05,33.41-31.44,0-12.13-5.66-21.24-15.73-25.71ZM15.56,47.65v-31.09h18.45c12.35,0,18.61,5.23,18.61,15.55s-6.78,15.55-18.61,15.55H15.56ZM57.08,78.67c0,11.49-6.44,17.57-18.63,17.57H15.56v-34.98h22.89c11.84,0,18.63,6.35,18.63,17.41ZM128.97,5.35c-1.24-3.01-3.96-4.88-7.07-4.88-2.23,0-5.24.84-6.95,4.91l-37.34,94.42c-.46.97-.68,2.37-.68,3.25,0,4.01,3.39,7.4,7.41,7.4,3.23,0,5.89-1.91,7.09-5.07l10.65-26.66h39.77l10.49,26.79c1.18,3.09,3.83,4.93,7.1,4.93,4.24,0,7.56-3.25,7.56-7.4,0-.64-.16-2-.61-3.11L128.97,5.35ZM136.93,65.14h-29.92l14.9-38.63,15.02,38.63ZM256.53,8.43v95.25c0,3.77-3.05,7.35-6.81,7.62-2.77.2-5.05-.81-6.77-3l-50.56-76.26v71.44c0,3.36-2.25,6.5-5.57,7.09-4.29.76-8.04-2.54-8.04-6.7V7.93c0-1.84.89-3.62,2.49-4.53.08-.04.15-.08.23-.12.89-.74,1.95-1.26,3.15-1.47,3.3-.57,5.86,1.22,7.06,2.89l49.26,74.05V8.25c0-2.87,1.59-5.57,4.2-6.77,5.73-2.65,11.35,1.51,11.35,6.95ZM283.65,56c0,28.62,11.08,41.95,34.88,41.95,10.51,0,19.81-4.35,24.88-11.62,1.29-1.84,3.45-2.94,5.78-2.94,3.98,0,7.1,3.12,7.1,7.11,0,1.57-.37,2.77-1.29,4.13-7.2,10.46-21.51,17.21-36.47,17.21-32.72,0-50.01-19.31-50.01-55.83S286.28,0,318.53,0c14.94,0,28.49,6.41,36.27,17.16.99,1.38,1.49,2.9,1.49,4.51,0,3.98-3.12,7.1-7.1,7.1-2.3,0-4.22-.95-5.7-2.83-5.32-7.34-15.09-12.04-24.96-12.04-23.15,0-34.88,14.17-34.88,42.1ZM415.25,0c-32.25,0-50.01,19.89-50.01,56s17.76,55.83,50.01,55.83,50.01-19.83,50.01-55.83S447.5,0,415.25,0ZM450.14,56c0,27.83-11.74,41.95-34.89,41.95s-34.9-14.11-34.9-41.95,11.74-42.1,34.9-42.1,34.89,14.17,34.89,42.1ZM825.4,139.61c55.28,0,98.59,41.5,98.59,94.47v124.15h-.15c-.27,1.98-1.9,3.53-3.94,3.53h-46.64c-2.05,0-3.68-1.55-3.94-3.53h-.1v-.46s0-.04,0-.06v-7s0-116.63,0-116.63h-.14c0-19.11-15.68-39.38-44.72-39.68-29.05.29-44.72,20.57-44.72,39.68h-.15v116.63l.02,7s-.02.04-.02.06v.46h-.09c-.26,1.98-1.89,3.53-3.95,3.53h-46.64c-2.06,0-3.68-1.55-3.94-3.53h-.14v-124.15c0-52.97,43.3-94.47,98.57-94.47h.45c.2,0,.4,0,.61.01.2,0,.4-.01.61-.01h.44M343.49,354.52h-.14c-.26,1.98-1.89,3.53-3.95,3.53h-46.65c-2.05,0-3.67-1.56-3.93-3.53h-.1v-.46s-.01-.02-.01-.05v-6.99s.01-112.91.01-112.91c0-26.07-22.03-39.7-43.82-39.7h-.44c-29.45,0-45.33,20.46-45.33,39.7v33.16c0,52.97-43.96,94.47-100.1,94.47h-.44c-55.28,0-98.58-41.5-98.58-94.47v-120.41h.03v-.56c0-2.25,1.81-4.06,4.05-4.06h46.55c2.23,0,4.06,1.81,4.06,4.06v.56h.08v120.41c0,26.07,22.04,39.71,43.82,39.71h.44c29.44,0,45.33-20.47,45.33-39.71v-33.16c0-52.98,43.97-94.47,100.1-94.47h.44c55.28,0,98.59,41.49,98.59,94.47v120.41ZM585.08,139.82c-58.63,0-106.31,49.73-106.31,110.86s47.68,110.87,106.31,110.87,106.31-49.73,106.31-110.87-47.69-110.86-106.31-110.86M585.08,305.7c-28.54,0-51.75-24.68-51.75-55.02s23.21-55.01,51.75-55.01,51.74,24.68,51.74,55.01-23.22,55.02-51.74,55.02M439.46,140.63c2.34,0,4.26,1.9,4.26,4.26v212.6c0,2.36-1.91,4.26-4.26,4.26h-48.95c-2.36,0-4.26-1.9-4.26-4.26v-212.6c0-2.36,1.91-4.26,4.26-4.26h48.95"/>
  </g>
</svg>